<?xml version="1.0" encoding="UTF-8"?>
<svg width="98px" height="97px" viewBox="0 0 98 97" version="1.1" xmlns="http://www.w3.org/2000/svg" xmlns:xlink="http://www.w3.org/1999/xlink">
    <!-- Generator: Sketch 60 (88103) - https://sketch.com -->
    <title>Group</title>
    <desc>Created with Sketch.</desc>
    <g id="Symbols" stroke="none" stroke-width="1" fill="none" fill-rule="evenodd" stroke-linecap="round" stroke-linejoin="round">
        <g id="Group" transform="translate(1.000000, 1.000000)" stroke="#525865">
            <path d="M95.9574468,79.2765957 C95.9574468,83.8846809 92.2251064,87.6170213 87.6170213,87.6170213 L8.38297872,87.6170213 C3.77489362,87.6170213 0.0425531915,83.8846809 0.0425531915,79.2765957 L0.0425531915,70.9361702 C0.0425531915,66.3280851 3.77489362,62.5957447 8.38297872,62.5957447 L87.6170213,62.5957447 C92.2251064,62.5957447 95.9574468,66.3280851 95.9574468,70.9361702 L95.9574468,79.2765957 Z" id="Path"></path>
            <path d="M17.7659574,74.0638298 C17.1904681,74.0638298 16.7234043,74.5308936 16.7234043,75.106383 C16.7234043,75.6818723 17.1904681,76.1489362 17.7659574,76.1489362 C18.3414468,76.1489362 18.8085106,75.6818723 18.8085106,75.106383 C18.8085106,74.5308936 18.3414468,74.0638298 17.7659574,74.0638298 L17.7659574,74.0638298" id="Path"></path>
            <path d="M32.3617021,74.0638298 C31.7862128,74.0638298 31.3191489,74.5308936 31.3191489,75.106383 C31.3191489,75.6818723 31.7862128,76.1489362 32.3617021,76.1489362 C32.9371915,76.1489362 33.4042553,75.6818723 33.4042553,75.106383 C33.4042553,74.5308936 32.9371915,74.0638298 32.3617021,74.0638298 L32.3617021,74.0638298" id="Path"></path>
            <path d="M77.7377872,29.2340426 C69.7977021,21.598383 57.2453617,21.598383 49.3052766,29.2340426" id="Path"></path>
            <path d="M86.2658723,20.9394894 C73.5634043,8.72076596 53.4754894,8.72076596 40.7730213,20.9394894" id="Path"></path>
            <path d="M94.7981277,12.640766 C77.3291064,-4.15685106 49.7139574,-4.15685106 32.2449362,12.640766" id="Path"></path>
            <line x1="63.5215319" y1="62.5957447" x2="63.5215319" y2="41.7446809" id="Path"></line>
            <line x1="14.6382979" y1="87.6170213" x2="8.38297872" y2="95.9574468" id="Path"></line>
            <line x1="81.3617021" y1="87.6170213" x2="87.6170213" y2="95.9574468" id="Path"></line>
        </g>
    </g>
</svg>